<svg xmlns="http://www.w3.org/2000/svg" viewBox="-40 -40 819 739" width="739" height="739"><linearGradient id="a" x1="45.7%" x2="49.2%" y1="12.9%" y2="96.7%"><stop offset="0" stop-color="#95621f"/><stop offset="1" stop-color="#aa892d"/></linearGradient><linearGradient id="b" x1="10.2%" x2="92.7%" y1="35.9%" y2="59.7%"><stop offset="0" stop-color="#f6c55c"/><stop offset="1" stop-color="#ffef7b"/></linearGradient><linearGradient id="c" x1="1.1%" x2="100%" y1="36.2%" y2="61%"><stop offset="0" stop-color="#e47148"/><stop offset="1" stop-color="#f1c066"/></linearGradient><linearGradient id="e" x1="50%" x2="50%" y1="0%" y2="100%"><stop offset="0" stop-color="#e8dddb"/><stop offset="1" stop-color="#d8d6d7"/></linearGradient><radialGradient id="f" cx="74.4%" cy="46.2%" r="74.6%" gradientTransform="matrix(0 .7 -1 0 1.2 -.1)"><stop offset="0" stop-color="#f4a36b"/><stop offset="1" stop-color="#e27f64"/></radialGradient><mask id="d" fill="#fff"><path fill-rule="evenodd" d="M390.1 85.1a226.5 226.5 0 0 1 31.1 2.2 222 222 0 0 1 12.2 437.6 318 318 0 0 1-131.3-40.2c-62.5-34.6-108-84.7-130.2-136.5l-.3-1.4a218.9 218.9 0 0 1-.5-3.3l-.2-1.2a222 222 0 0 1-2.8-30.7v-4.5a222 222 0 0 1 222-222z"/></mask><g fill="none" fill-rule="evenodd"><path fill="#fff" stroke="#fff" stroke-width="30" d="m373.4 29.3 2.8-.3a224.1 224.1 0 0 1 60 .3 222.3 222.3 0 0 1 172.4 131c105 102.1 145.6 235.6 90.5 335-71.5 129-277.1 151.8-459.2 50.8C57.8 445.1-32 258.8 39.6 129.8 94.9 30 230.6-6.2 373.4 29.3z"/><path fill="url(#a)" d="M299 543.4c89.2 0 161.5-112.8 161.5-252s-72.3-252-161.5-252c-7.6 0-19.3.5-35 1.4l120.8-79.3 147.6 266.3-82.8 338.6c-108.4-15.3-158.6-23-150.6-23z" transform="rotate(-61 356.5 222.2)"/><path fill="url(#b)" d="M24.6 187.8c71.5-129 277-151.7 459.2-50.7C665.8 238 755.5 424.4 684 553.4 612.6 682.4 407 705 224.9 604 42.8 503.1-47 316.8 24.6 187.8zm133.2 26c-47.1 85 15.5 209.8 139.9 278.8s263.4 56 310.5-29.1c47.2-85-15.5-209.8-139.9-278.8S205 128.8 157.8 213.8z" transform="translate(15 -58)"/><path fill="url(#c)" d="M24.6 187.8c71.5-129 277-151.7 459.2-50.7C665.8 238 755.5 424.4 684 553.4 612.6 682.4 407 705 224.9 604 42.8 503.1-47 316.8 24.6 187.8zm68.6 14.8c-58.5 105.5 16.2 258.8 167 342.3 150.6 83.6 320.2 65.7 378.7-39.8s-16.2-258.8-167-342.4C321.4 79.2 151.8 97 93.3 202.6z" transform="translate(15 -58)"/><path fill="#fff" d="M135.5 43.1C231.9-1.7 371 8.3 498.8 79.1 680.8 180 770.5 366.4 699 495.4c-31.6 56.9-89.3 93.1-159.5 107.1l-51.3-124c60-3.5 110.2-28.3 135-73 47-85-15.6-209.8-140-278.8C393.4 77 295.8 70 230.8 102z" opacity=".2"/><g mask="url(#d)" transform="translate(15 -58)"><g transform="translate(168.1 85.1)"><circle cx="222" cy="222" r="222" fill="url(#e)"/><path fill="url(#f)" d="M222 0c10.6 0 21 .7 31.1 2.2A272.6 272.6 0 0 1 328 188c0 105.8-63.1 198.4-157.7 250A222 222 0 0 1 222 0z"/></g></g><path fill="#fff" d="M550 157.3c-7-38.9-43.2-71.5-66.2-68.3-36.5 5-44 42-39.8 68.3 2.4 14.6 7.8 19.8 39.8 19.8 32 0 69.6-.1 66.1-19.8z" opacity=".15"/></g></svg>