<svg fill="none" viewBox="-25 -25 552 552" xmlns="http://www.w3.org/2000/svg"><path d="m376 80.5-25.434-21.3-4.566-6.2-6.186-5-28.674 12.8-36.739 28.8-34.05 35.2-43.011 43.2-25.985 33.6-18.817 20-6.273 20.8-8.064 16 4.48 19.2.896 17.6 6.272 17.6 15.233 16.8 9.857 15.2 19.713 13.6 17.025 7.2 13.441 8 16.129 11.2 16.129 5.6 16.129 3.2 13.441 1.6h14.337l13.441-2.4 13.441-6.4 23.297-12 7.169-8.8 12.545-14.4 14.337-21.6 17.025-25.6 17.921-22.4 10.752-4h6.273l2.688 12 15.233-28 12.545-28.8 11.649-36.8 8.064-25.6 5.376-28-35.039-12.4-34-16.5-28.5-18z" fill="#eaece7"/><path d="m204.509 109-11.509 7.5-12.5 9.5 20.425-2.8 5.376 4 .896 4v2.4l-2.688 5.6-3.584 5.6-4.481 6.4-9.856 10.4-6.273 6.4-5.376 5.6-7.168 7.2-16.129 18.4-12.545 15.2-11.649 16-7.168 10.4-5.377 8.8-9.856 19.2-3.585 8-.896 4v6.4l.896 3.2 3.585 5.6 11.648 15.2 12.545 14.4 17.025 16.8 15.233 12.8 16.129 12 19.714 14.4 17.921 10.4 28.673 12.8 24.194 7.2 19.713 4h8.961l9.857-3.2 10.752-6.4 13.441-10.4 12.545-12.8 5.376-5.6 8.065-9.6-2.688 2.4-3.585 3.2-1.792.8-7.168 3.2-6.273 3.2-8.064 4-9.857 4.8-5.376 2.4-11.649.8h-8.064-13.441l-13.441-3.2-17.921-6.4-24.194-11.2-17.025-9.6-14.337-9.6-14.337-10.4-11.648-11.2-9.857-14.4-7.169-12.8-4.48-17.6-1.792-16 1.792-16.8 4.48-16 6.273-11.2 12.545-19.2 14.337-16.8 19.713-22.4 16.129-18.4 15.233-16 13.441-13.6 22.401-20 15.233-13.6 13.441-10.4 15.233-12.8 14.337-8 12.545-7.2-8.961-11.2-6.272 3.2-11.649 5.6-8.932 4.4-11.5 6-13 8-13 8-16.5 9.5-25 14.5z" fill="#dcdfdd"/><ellipse cx="331.749" cy="189.6" fill="#f4cc65" rx="102.151" ry="92"/><path d="m399.142 190.4c0 32.851-29.53 59.9-66.497 59.9s-66.496-27.049-66.496-59.9 29.529-59.9 66.496-59.9 66.497 27.049 66.497 59.9z" fill="#565254" stroke="#000" stroke-width="5"/><g fill="#807d7d"><path d="m287.842 182.4h-3.584v4 2.4 1.6 2.4 1.6 2.4l.896 3.2.896 3.2.896.8 2.688 1.6h2.689 2.688v-6.4l-1.792-2.4-.896-.8-.896-1.6v-2.4-2.4l.896-3.2.896-2.4-.896-1.6h-2.689z"/><path d="m375.671 194.96 4.039.08.102-4.069.061-2.441.04-1.628.061-2.441.041-1.627.061-2.442-.929-3.275-.929-3.275-.99-.834-2.989-1.688-3.029-.06-3.03-.06-.163 6.51 1.959 2.482.99.833.969 1.648-.06 2.441-.061 2.442-1.091 3.235-1.071 2.421.969 1.648 3.03.06z"/><path d="m368.487 200.8.897-2.4 6.272 2.4v1.6 2.4l-.896 3.2-1.792 2.4-2.688 1.6-2.689.8-1.792-1.6-1.792-1.6-1.792-1.6 1.792-1.6 1.792-1.6 1.792-2.4z"/></g><path d="m63.8279 311.2h8.9606l23.2975-31.2 4.48-8.8.896 2.4v3.2l.896-2.4 1.793-3.2 1.792-4 1.792-4 1.792-3.2 5.376-10.4 8.961-14.4 10.752-15.2 7.169-8.8 8.961-11.2 8.064-8.8 5.376-6.4 4.481-4.8 3.584-4 7.168-7.2 17.025-17.6 8.065-12 2.688-5.6v-2.4l-.896-4-5.376-4h-9.857l-8.064 1.6-13.441 4-12.545 4.8-9.857 4-12.545 6.4-4.48 2.4-5.376 3.2-.896 2.4v4 2.4 3.2 4l-1.65 7.2-4.48 11.2-5.519 5.6-6.272 8-13.4412 16.8-15.233 16-11.3178 14.4-10.7526 15.2-6.6034 14.4-3.5843 8.8-4.4802 11.2-2.6882 8v8.8l2.6882 4h8.0645 8.9605z" fill="#575456"/><path d="m114.007 156 10.753-6.4v16l-2.688 10.4-3.585 8-5.376 8-19.7131 23.2-15.233 16-7.1685 8-6.2724 8-5.3763 7.2-3.5843 4.8-5.3763 12-8.0645 18.4-4.4803 12.8v8.8l2.6882 4h8.9605 8.0646l-8.0646 2.4h-3.5842-6.2724-6.2724l-5.3763-2.4-7.1685-4-6.2724-5.6-5.37634-6.4-3.58423-5.6-1.79212-7.2-.89605-7.2.89605-6.4 1.79212-6.4 1.79211-5.6 4.48026-8 9.8567-13.6 8.9605-10.4 8.9606-10.4 8.9606-8.8 7.1684-7.2 9.8567-8.8 8.0645-7.2 11.6487-9.6 9.8567-8 8.961-6.4z" fill="#434040"/><path d="m102.466 275.8 3.584-8.8-4.48 3.2-2.6883 4-2.6882 5.6-23.2974 30.4-.8961 2.4v1.6l1.7921 4 1.7921 2.4 3.5843 4.8 8.0645 7.2 8.9605 8 10.7525 10.4 6.273 4.8 7.168 5.6 4.48 4 .633 2.6v4.5l-.5 5 .5 4-.5 5 1 3.5 1 4 2.348 1.8 1.792 2.4 2.688 2.4 2.688 2.4 4.48 3.2 4.481 3.2 5.376 3.2 4.48 2.4 5.377 3.2 2.688 1.6 3.584 1.6 3.584 1.6 3.585 1.6 3.957 1.7 5.892 2.2h7l6-2.2 3.5-1.7 1.428-3.2 2.18-1.6.892-.8 5 1.5 2.681 1.7 17.025 10.3 24.194 10.4 10.6 3.6 15.608 4.3 1.207-7.7 1.793-12.8-4.119 3.9-8.96 1.6h-11.649l-16.129-6.4-38.143-19.1-22.5-12.5-13.73-6-23.297-16.8-13.441-12-10.753-9.6-7.168-6.4-6.273-7.2-5.376-6.4-5.3765-7.2-2.6881-4.8-1.7921-4-1.7922-6.4v-5.6-4l1.7922-4 1.7921-4.8 2.6881-4.8 4.4805-6.4.896-2.4z" fill="#433e3e"/><path d="m100.566 284v-2.4l-4.48 5.6-2.6881 5.6-2.6882 5.6-1.7921 4v6.4l2.6881 8.8 3.5843 8.8 9.857 13.6 10.752 10.4 12.545 11.2 9.857 8.8 13.441 10.4 17.921 12.8 19.713 11.2 14.337 6.4 24.193 12 15.233 7.2 14.337 5.6 6.273 1.6h6.272l2.688-.8 6.273-.8 3.584-4v1.6l-.896.8v2.4l-.896 4.8-.896 2.4v2.4l-1.792 1.6h-5.377l2.689 1.6 2.688 1.6 1.792 3.3.896.7.896 4.8v4.8 7.2l1.792 8 1.792 3.2 2.846 3.8 2.53-2.2 8.961-4 16.129-9.6 15.233-12.8 17.025-16.8 16.129-15.2 14.337-20 14.337-21.6 9.857-16.8 12.544-24.8 6.273-16.8 6.272-11.2 1.792-5.6v-14.4-4-4.8-3.2l-1.792-4h-2.688l-4.48 2.4-3.584 4.8-11.649 13.6-8.961 13.6-10.752 16-14.337 21.6-9.857 11.2-4.48 5.6-5.377 6.4-12.544 13.6-8.065 8-13.441 10.4-10.752 6.4-9.857 3.2h-8.961l-19.713-4-10.753-3.2-13.44-4-17.922-8-7.168-3.2-3.584-1.6-2.689-1.6-2.688-1.6-4.48-2.4-2.688-1.6-2.688-1.6-2.688-1.6-5.377-4-4.48-3.2-5.376-4-5.377-4-8.96-6.4-8.961-7.2-8.961-7.2-4.48-4-3.584-3.2-13.441-13.6-11.649-13.6-11.648-15.2-3.585-5.6-.896-3.2z" fill="#59585a"/><path d="m295.011 491.2-7.169-5.6 12.545-5.6 15.233-8.8 11.649-9.6 13.441-12.8 14.337-14.4 9.856-9.6 12.545-17.6 5.376-8 11.649-16.8h1.792l1.792.8 2.689-.8 5.376-1.6 4.48-.8 2.688-1.6 2.688-2.4 2.689-.8h2.688v2.4 3.2l1.792 1.6.896 1.6v5l1.792-3.4 9.857-24.8 2.895-11.2-1.999-1.6h-.896-1.792-.896l-2.689 1.6h-2.688l-1.792-1.6-1.792-1.6-2.688-.8v-2.4l-.896-3.2-2.688-2.4-1.793 2.4 5.377-13.6 4.48-10.4 3.584-7.2v-12.8-10.4l-.896-4-3.584-2.4 3.584-1.6 3.585-.8 5.376.8 1.792 3.2 1.792 4 .448 3.2.448 3.2v23.2l-.896 25.6-2.481 9.6-2.895 11.2-9.857 24.8-1.792 3.4-12.545 23.8-13.441 23.2-16.129 24-18.817 20-12.545 9.6-8.064 4-8.065 3.2-5.376 1.6-4.48.8h-7.169l-7.168-.8-5.377-1.6-4.48-1.6z" fill="#6e6b6d"/><path d="m393.577 384-.896.8 9.857-16.8 2.688-5.6 6.272-12 3.584-8 .897-3.2 1.792-1.6 2.688 2.4.896 3.2v2.4l2.688.8 3.584 3.2h2.688l2.689-1.6h3.584l1.792 1.6-.896 8.8-2.688 8.8-3.585 8.8-7.168 12.8v-4.8l-.896-1.6-1.792-1.6v-5.6h-2.688l-2.688.8-2.689 2.4-2.688 1.6-4.48.8-8.065 2.4-1.792-.8h-1.792z" fill="#939090"/><path d="m340 41-6-7 2-1.5 12.774-5.3 13.441-5.6 10.753-4 9.856-3.2 11.649-4 12.545-4 17.025-4 18.758-2.4 17.305.828571 7.286 1.657139 9.107 4.14286 8.197 5.80003 6.375 8.2857 5.465 12.4286 3.643 14.0857 1.821 11.6v11.6 9.9428l-.911 13.2572-1.821 14.9144-2.732 15.457-2.6 15.2-11.972-3.314-21.858-8.286-32.787-15.743-24.59-14.9141-20.948-15.7429-13.781-11.2-9-6.5-7-9-5.738-7.2714-3.762-2.2286z" fill="#e03160"/><path d="m468.846 32.8-3.584-6.4v-1.6l2.688-2.4.896-.8v-1.6l2.688-.8h2.688 2.688l2.689.8 1.792.8.896 1.6v2.4 3.2 2.4 3.2l-2.688 1.6-2.689 1.6h-3.584l-2.688-1.6z" fill="#fdb9ca"/><path d="m477.806 40-1.792 1.6-1.792 1.6v3.2 3.2l1.792 3.2 1.792 4.8 1.793 4.8.896 3.2.896 4 .896 3.2v4 2.4 4.8l-.896 8.8v5.6 7.2l-.896 6.4v6.4l1.792 1.6h1.792l1.792-1.6 1.792-5.6.896-7.2.896-7.2.896-4 .896-4.8.896-5.6v-5.6-5.6-4.8-3.2l-.896-8-.896-4-.896-3.2-1.792-3.2-1.792-2.4-1.792-2.4-1.792-1.6h-2.688z" fill="#fdb9ca"/><path d="m332.645 35.2 11.649 13.6 10.753 12 8.064 7.2 9.857 8.8 15.233 12 14.337 10.4 16.129 9.6 16.129 8.8 17.025 8 19.713 8 13.441 4.8 8.96 2.4" stroke="#000" stroke-width="5"/><path d="m183.004 124.8-8.065 2.4-8.064 2.4-7.169 2.4-4.48 1.6-5.377 2.4-6.272 2.4-2.688 1.6-3.584 1.6-2.689 1.6-3.584 1.6-3.584 2.4-4.48 2.4-3.584 2.4-2.689 1.6-3.584 2.4-5.376 3.2-5.377 3.2-2.6878 2.4-29.5698 24-17.0251 15.2-17.9212 18.4-11.6487 13.6-8.9606 12-5.37634 8-2.68817 4.8-2.68818 9.6-.89605 4.8-.89606 4.8.89606 7.2 2.68817 8 4.48027 6.4 4.4803 4.8 4.4803 4 8.9606 5.6 5.3763 2.4h16.129l8.0646-2.4 6.2724-3.2 1.7921-.8h2.6881 1.7922 1.7921l-.8961 2.4 4.4803 8 11.6488 11.2 17.0255 16 20.609 16.8v20l1.792 7.2 3.584 4.8 6.273 5.6 8.96 6.4 26.882 14.4 6.249 2.4 7 1.8 6.5-1 4.5-.8 4-2.4 3-4 1-2.3 4.489 2.3 10.753 6.4 17.025 8.8 14.337 6.4 10.753 3.2 9.856 2.4 6.273 4 2.688 3.2v16l.896 4 .896 4.8 3.584 4.8 9.857 8 10.753 4.8 12.544 2.4 8.961-.8 17.025-5.6 11.649-8.8 14.337-13.6 15.233-17.6 8.591-11.6 10.5-17.5 8-13.5 10.543-21.4 8.065-16 5.376-15.2 3.584-16.8.896-25.6v-23.2l-.896-7.2" stroke="#000" stroke-width="2"/></svg>