<svg fill="none" viewBox="-40 -40 585 585" xmlns="http://www.w3.org/2000/svg"><path d="m190 280 22.869 36.545m24.131 41.455 16.632 27.409m20.368 37.591 21 30m16.689 31 12.488 7 7.992 4 10.989 4.5 10.989 2 10.261.5 11.533-1.755 7.02-1.755 8.023-2.34 13.037-5.264 9.779-3.802" stroke="#000" stroke-width="4"/><path d="m364.865 436.047 108.108-66.446" stroke="#e9eaf3" stroke-width="30"/><path d="m411.813 303.433c12.299 5.336-67.309 48.594-109.813 71.567l135-78" stroke="#e9eaf3" stroke-width="20"/><path d="m255.717 385.382-15.592-25.747 20.79-6.645 18.711-6.644 39.501-15.781 20.79-9.967 9.355-5.814 20.79-12.458 6.237-4.153 18.711-12.459 18.711-13.289 7.277-4.983 12.474 17.442v4.153l-3.119 3.322-5.197 4.153-25.988 18.272-34.303 21.595-31.185 16.611-17.672 7.475-20.79 8.306-24.948 9.136z" fill="#64666f"/><path d="m323.285 369.601-2.079.831 1.039 1.661-1.039 1.661-3.119 2.492-4.158 6.644 1.04 2.492 12.474 20.764 3.118.831 15.593-5.814 21.829-8.306 13.514-5.814 13.513-5.814 22.869-12.458 6.237-4.153 6.237-4.153 27.027-18.272 2.079-1.661 6.541-4.532 3.854-2.5 1.646-2v-3l-.5-1.5-17.778-28.827-2.079-2.492-2.079-.831h-2.079l-3.118.831-8.316 7.475-8.316 6.645-8.316 6.644-14.553 9.967-12.474 8.306-11.435 7.475-20.79 11.628-10.395 4.983-9.355 4.153-12.474 4.983zm58.212-72.259 12.474-10.797 10.395-7.475 18.634-14.07 10.472 19.884-3.119 4.153-13.513 9.966-17.672 12.459-15.592 9.967-12.474 7.475-18.711 11.628-10.395 5.814-10.395 5.813-8.316 3.323h-2.079l-1.04-.831 2.079-2.492 8.316-17.441 7.277-5.814 10.395-6.645 14.553-10.797zm-12.474 118.771-3.119-7.475h4.158l6.237-1.661 11.435-5.814 4.158-2.492 6.237-4.983 8.316-5.814 6.237-4.153 9.355-5.814 14.553-11.628 2.079-1.661 1.04-.831 21.791-18.287 8.354 12.473 1.04 2.492v5.814l-1.04 1.661-2.079 1.661-3.118 2.492-10.395 7.475-8.316 5.814-43.659 24.917-4.158 1.661-24.948 10.797-3.119-2.491z" fill="#b7b8c0"/><path d="m273.389 293.189c19.09-9.939 74.482-47.33 99.792-64.784" stroke="#e9eaf3" stroke-width="20"/><path d="m423.077 259.5-5.717 3.789-.52.831-28.067 19.103-18.711 11.628-5.197 3.322-32.225 16.611-20.79 9.136-8.316-2.491-10.395-4.153-6.237-4.153-5.197-4.983-3.119-4.153-1.039-2.492v-4.153l9.355-4.153 9.356-5.814 16.632-10.797 16.632-11.628 22.869-17.442 7.276-5.814 8.316-6.644 1.04-1.661-1.04-.831-1.039-.83h-2.079l-10.395 5.814-9.356 4.152-12.474 4.153 12.474-6.644 25.988-13.289 30.145-18.273 4.158-2.491 2.079-1.662 15.593 24.917 4.158 6.645 6.265 9.95 1 3.5-1 3-3.147 3-4.353 3z" fill="#b7b8c0"/><path d="m224.532 361.296-25.987-33.223 25.987-9.136 25.988-10.797 8.316-3.323 18.711-7.475v3.322l1.039 2.492 3.119 4.153 5.197 4.983 6.237 4.153 10.395 4.153 8.316 2.492 20.79-9.137 32.225-16.611 24.948-15.781 13.513-9.136 18.174-11.925 2 5.5-28.49 19.714-24.948 16.612-30.145 18.272-20.79 9.967-39.501 15.781-18.711 6.644-17.672 5.814-5.197 1.661-3.119.831-3.118.83h-5.198z" fill="#878992"/><path d="m317.048 148.671-16.632 8.306 12.474-1.661h5.197l3.119.83 2.079 3.322 1.039 4.153v4.984l-1.039 5.814-8.316 30.73-1.04 5.814v4.153l1.04 4.153 5.197 4.153 7.277 1.661h9.355l9.356-1.661 19.75-7.475 28.067-12.459 24.948-14.119 14.553-9.136 3.118-3.323 11.435-9.966 8.316-9.137 7.159-7.307 4.275-7.643 1.04-3.322v-4.984l-1.04-4.983-3.603-11.007-17.672-31.561-2.633-2.2824-3.119-2.4917-3.248-3.7259-5.068 1.2342-5.432.2658-6.002 1.3954-5.198 2.4916-28.066 22.425-12.474 8.306-6.237 4.153-6.237 4.153-4.158 2.491-11.435 6.645-12.474 7.475z" fill="#bbbec8"/><path d="m126.819 102.159-16.632-30.7304 5.198.8305h9.355l5.198-.8305 21.829-5.814 28.067-9.9668 22.869-8.3056 12.474-4.9834 10.395-4.1528 8.316-4.1528 6.237-4.9834 22.869 30.7309 2.079 3.3222 1.039 2.4917v3.3223l-1.039 2.4917-2.079 3.3222-9.356 9.1362-5.197 3.3223-8.316 4.9834-11.435 5.8139-4.158 1.6612-9.355 3.3222-8.316 2.492-10.395 4.983-11.435.831-5.197.83-3.119 1.661-8.316-.83h-17.671l-7.277-2.492-5.197-1.661h-3.119l-4.158-1.661z" fill="#999caa"/><path d="m117.464 101.329-21.8299-33.2227-8.316 4.9834-16.632 11.6279-11.4345 8.3057-9.3556 7.4747-11.4345 9.137-6.237 5.814-6.237 6.644-7.2765 9.136-6.237 7.475-2.079 3.323-3.11849 4.983-2.079 3.322-1.03951 2.492-1.0395 2.492-1.0395 3.322-1.0395 2.492-1.0395 3.322v14.95l1.0395 3.322 1.0395 3.323 2.079 4.152 2.07901 3.323 2.079 3.322 1.0395.83 2.07899 2.492 3.1185 2.492 4.158 2.492 3.1185 1.661 6.237 1.661 7.2765 1.661 7.2765.83 7.2765.831 12.4741.831 13.5135.83h14.553l12.4744-.83 22.869-1.662 6.237-.83 8.316-.831 10.395-1.661 22.869-4.983 23.908-5.814 23.909-5.814 21.829-7.475 15.593-5.814 23.908-11.628 22.869-11.628 29.106-14.95 28.067-16.611 24.948-16.612 13.513-10.797 10.395-8.3057 4.158-3.3223 5.198-2.4917 6.002-1.3953 5.432-.2658 3.119.8306 5.197 1.6611 3.119 2.4917 2.079 3.3223 3.118 5.8139 6.237 10.7972 5.198 9.136 3.118 5.814 2.079 4.984 2.079 4.983 1.04 4.983v4.984l-1.04 3.322-3.118 4.153-8.316 10.797-8.316 9.137-11.435 9.966-3.118 3.323h3.118l5.198-4.153 5.197-4.153 5.198-4.983 8.316-9.137 17.672-19.933 2.078-3.323v-3.322l-1.039-4.153-25.988-49.0029-2.079-4.9834-4.158-9.1362-10.395-20.7641-8.316-11.6279-10.395-9.1363-18.711-10.7973-20.79-7.47508-21.829-3.322255-23.909-.830565h-17.671l-16.632.830565-18.711 2.491695-31.185 4.15282 21.829 33.22262 1.04 3.3222 1.039 4.9834v7.4751l-2.079 9.1362-6.237 9.1362-10.395 9.1362-13.513 8.3057-11.435 5.8139-13.513 4.9834-11.435 3.322-11.434 3.323-12.474 2.491-10.395.831h-6.237l-6.237.83h-9.356l-9.355-.83-6.237-.831-5.198-2.491-5.197-4.153z" fill="#dddfde"/><path d="m110.187 71.4286-14.5529-3.3223 21.8299 33.2227 4.158 4.153 5.197 4.153 5.198 2.491 6.237.831 9.355.83h9.356l11.434-.83-12.474-.831-8.316-.83-4.158-.831-5.197-1.661-4.158-1.661-4.158-2.492-1.04-.83-2.079-1.662z" fill="#f9faff"/><path d="m248.441 23.2558v-15.7807l21.829 33.2226 1.04 3.3222 1.039 4.9834v7.4751l-2.079 9.1362-6.237 9.1362-10.395 9.1363 9.356-9.1363 2.079-3.3222 1.039-2.4917v-3.3223l-1.039-2.4917-2.079-3.3222-22.869-30.7309 2.079-.8306 2.079-.8305 2.079-1.6612 1.039-.8305z" fill="#050c18"/><path d="m64.4491 286.545c-9.009-13.012-33.0562-49.502-57.1726-91.362l4.158 4.983 3.1185 2.492 4.158 2.491 3.1185 1.662 6.237 1.661 7.2765 1.661 14.553 1.661 25.9876 1.661h14.553l35.3434-2.492 6.237-.83 8.316-.831 10.395-1.661 11.434-2.492 11.435-2.491 47.817-11.628 21.829-7.475 15.593-5.814 41.58-20.764 12.474-1.661h5.197l3.119.83 2.079 3.322 1.039 4.153v4.984l-1.039 5.814-2.079 7.475-2.079 8.305-2.079 7.475-2.079 7.475-1.04 5.814v4.153l1.04 4.153 5.197 4.153 7.277 1.661h9.355l9.356-1.661 19.75-7.475 28.067-12.459 24.948-14.119 14.553-9.136h3.118l-6.59 5.267-24.595 19.649-34.303 20.765-19.751 9.966-18.711 9.967-12.474 5.814-19.75 6.645-40.541 12.458-29.106 5.814-36.382 6.645-30.146 4.983-32.224 2.492-36.3829 1.661h-17.6715l-7.2765-1.661-4.158-2.492z" fill="#727780"/><path d="m213.098 313.953-18.711-30.73 12.474-2.492 23.908-4.153 29.106-5.814 60.291-19.103 21.83-10.797-5.198 4.983-6.237 4.153-13.513 8.306-25.988 18.272-15.592 9.967-20.79 9.967-17.672 7.475-13.513 5.814z" fill="#5d5f6b"/><path d="m198.545 328.073 6.237-9.136 2.079-2.492 8.316-3.322 39.501-16.611 20.79-9.967 10.395-6.645-1.04 7.475-1.039 1.662-2.079 1.661-2.079 1.661-1.04 2.491-1.039 2.492-6.237 2.492-20.79 8.306-25.988 10.797zm43.659 68.937 3.118-8.306 1.04-2.491 9.355-3.323 14.553-4.983 27.027-9.967 10.395-4.153-1.039 3.323 1.039 1.661 4.158-.831h7.277l2.079 2.492-12.474 4.983-13.514 4.984-20.79 6.644-17.671 5.814z" fill="#a2a4ac"/><path d="m265.073 427.741-22.869-30.731 14.553-4.153 22.869-7.475 17.671-5.814 11.435-4.153 12.474-4.983 1.039 1.661-1.039 1.661-3.119 2.492-2.079 3.322-2.079 3.322 1.04 2.492 12.474 20.764 3.118.831 37.422-14.12 27.027-11.628 22.869-12.458 41.621-28.271 2 5-21.791 18.287-31.185 19.103-30.146 14.12-31.185 13.289-16.632 5.814-14.553 5.814-16.632 4.983-17.671 2.492-4.158.831h-8.316l-2.079-.831z" fill="#878992"/><path d="m296.258 451.827-15.593-22.425h1.04l17.671-2.492 16.632-4.983 4.158-1.661 12.474-4.984 14.553-4.983 29.106-12.458 32.225-14.951 17.671-10.797 9.356-5.814 4.158-2.492-4.158 4.153-5.198 4.153-8.316 5.814-9.355 5.814-6.237 4.153-8.316 5.814-6.237 4.983-4.158 2.492-11.435 5.814-6.237 1.661h-4.158l1.04 2.492 2.079 4.983 1.039 4.153 3.119 2.491 29.106-12.458 43.659-24.917-4.158 4.153-8.316 6.644-11.435 7.475-30.145 14.951-24.948 9.966-10.395 4.153-12.474 4.153-24.948 8.306-11.435 3.322z" fill="#64666f"/><path d="m285.863 465.116v-10.797l10.395-2.492 11.434-3.322 11.435-3.322 12.474-4.153 24.948-8.306 4.158-1.661 12.474-4.983 1.039 2.491-4.158 2.492-2.079 1.661v3.323l3.119 1.661-4.158 1.661-22.869 8.305-18.711 5.814-15.593 4.984-10.395 3.322-9.355 2.492z" fill="#a2a4ac"/><path d="m303.534 487.542-17.671-22.426 4.158-.83 3.118-.831 3.119-.83 3.118-.831 5.198-1.661 5.197-1.661 5.198-1.661 10.395-3.323 18.711-5.814 22.869-8.305 4.158-1.661 1.039 1.661-2.079.83-2.079 3.323v3.322l5.198 4.983 7.276 7.475 5.198 1.661h5.197l9.356-4.152 17.671-8.306 16.632-8.306 21.83-9.966 13.513-10.798 6.237-4.983 5.198-3.322 8.316-3.323 1.04-4.153 2.079 1.662 1.039 2.491-2.079 3.323-7.276 8.305-20.791 13.289-18.711 10.798-27.027 13.289-20.79 8.305-25.987 8.306-15.593 4.153-16.632 4.153-20.79 4.983-3.118.831-4.158.83h-3.119l-4.158-.83z" fill="#878992"/><path d="m377.339 435.216-6.237 2.492 1.039 1.661-2.079.83-2.079 3.323v3.322l5.198 4.983 7.276 7.475 5.198 1.661h5.197l9.356-4.152 5.197-2.492 7.277-3.322 13.513-6.645 8.316-4.153 2.079-.83 19.751-9.136 9.355-5.814 23.909-16.612 3.118-2.491 2.277-1.316 1-2v-2l-13.672-25.415-3.118-.831h-3.119l-2.079.831-3.118 3.322-3.119 2.492-15.592 12.458-14.553 9.967-20.79 12.458-19.751 10.798z" fill="#b7b8c0"/><path d="m324.324 490.073-6.237-3.362 3.119-.831 8.254-2.388 10.334-2.468 16.533-4.114 6.201-1.645 9.3-2.468 25.833-8.227 20.667-8.226 26.868-13.163 18.6-10.694 9.3-6.581 9.3-6.582 9.3-8.226 2.067-3.291v3.291l-1.033 2.468-4.134 3.291-5.167 4.935-5.166 4.936-7.234 7.404-8.267 6.582-6.2 4.113-9.3 4.936-9.3 5.758-8.267 4.936-6.2 3.291-6.2 1.645v2.468l3.1 5.759 7.234 3.29 4.133 1.646h4.133l6.2-1.646 8.267-3.29 6.2-2.468 6.2-3.291-3.762 2.639-15.871 8.056-20.629 8.155-7.5 2.289-9.5 3-12.5 4-9 2.5-8.5 1.5-11 1.5-8.173-.5-5.327-.5-7.5-1.5-5.662-2.322-7.277-3.315z" fill="#64666f"/><path d="m496.881 414.452-3.118-6.645v2.492l-1.04 2.492-4.158 3.322-5.197 4.983-5.198 4.984-7.276 7.475-8.316 6.644-6.237 4.153-9.356 4.984-9.355 5.814-8.316 4.983-7.277 2.492-4.953 2.375-.244 2.608 3.118 5.814 3.119 2.492 3.118 1.661 5.198 1.661h5.197l5.198-1.661 15.592-6.645 6.237-3.322 8.316-5.814 10.395-7.475 8.316-7.475 6.237-8.306 3.119-6.644v-5.814l-1.04-5.814z" fill="#b7b8c0"/><path d="m429 79-3 1h5l9.5 2 3 2.5 4 6.5 10 17.5 6 11 4.5 10 1 5v4.5l-1 3-.5 1-4 5.5-7 9-8.5 9.5-3.5 3-8 7-3.5 3.5h3.5l11-9 3.5-3 3.5-3.5 7.5-7.5 5.5-6 11-13.5 2-3.5v-3.5l-1-3.5-26-49-6-13.5-7-14 2.5 8.5.5 4-2 4.5-5.5 6.5-3 2.5z" fill="#8e8e8e"/></svg>