<svg height="450" viewBox="0 0 450 450" width="450" xmlns="http://www.w3.org/2000/svg"><g fill="none" fill-rule="evenodd"><path d="m273.9 334.3c-4.5 28.6-16.1 52.5-34.2 69.3-17.8 16.5-41.9 26.3-72.5 26.3-28.9 0-52.7-8.1-70.3-24-16.8-15.1-28.1-37.6-31.9-68.1-3.8-30.6 3-56.6 19.2-75.6 14.1-16.4 35.4-27.8 64.3-31.6 2.8-30.4 11.1-60.4 24.5-90.1-9.4 7.1-19.9 13.7-31.6 19.9-18.7 9.9-43.8 17-66.7 17.4-21.1.4-40.2-4.9-52.5-17.2-1.1-1.1-2.2-2.3-3.2-3.5.1-1.5.2-2.9.3-4.4 2-22.7 9.1-44.3 23.5-60.9 14-16.1 31.1-30 60.6-43.7 38.5-17.9 74.2-18.9 108.1-9.8 13.3-7.7 30.5-13.6 46.8-18.3.7-.3 1.2-.4 1.7-.6l1.5-.4h1.6c1.3 0 2.2.1 3 .2 2.5.5 5.1 1.7 7 5.1.5.8 1.1 2 1.4 3.6.2 1.1.4 2.6.4 4.6 0 2.3-.2 5.8-.8 10.4-2.7 63.2 2.3 85.5 15.3 107.5 26-11.5 50.1-13.8 70.4-8.2 23.3 6.4 42.1 23.1 52.9 49.6 11.4 27.8 13.8 55.2 6.4 79.4-7.1 22.9-22.9 43.2-49 58.3-19.8 11.4-39.4 16.8-58.1 15.9-13.1-.5-25.9-4.2-38.1-11.1zm-10.5-169.4c-10.4-17.6-17.5-38-19.1-85-35 50.2-57.8 88.1-63.8 149.6 12.7.8 24.3 2.9 34.6 6.3.9-11.8 4.7-23.3 11.4-34.4 7.9-12.9 20.1-25.3 36.9-36.5z" fill="#fff"/><g transform="translate(29 29)"><g transform="translate(167.808793 90.154967)"><path d="m123.9 212.3c56.3 0 88.6-36.6 95.8-89.3s-30.7-88.3-97.5-87-96 38.5-89.1 94 40.4 82.3 90.8 82.3z" fill="#ed2e60" transform="matrix(.8660254 -.5 .5 .8660254 -45.138952 79.801891)"/><path d="m165.2 61.9c15.7 0 27.3.3 35.7 2.9 2.1 3.6 4.1 7.5 5.8 11.6 7.8 19.2 11.1 38.1 9.4 55.8-10.4 31.5-39.7 54.1-74.2 54.1-43.2 0-78.3-35.4-78.3-79.2s57.1-45.2 100.3-45.2z" fill="#dd2756"/><path d="m127.8 31.1c32.8-4.9 59.9 8.3 75 37.1 3.2 43.5-16.3 63.5-50.9 68-29.7 1.4-58.5-.9-81.2-29.1-8.7-13-16.2-25.7 8-33.1 23.3-7 38.4-22.3 48.3-42.8z" fill="#fb3f92"/></g><g transform="translate(45 210.249412)"><path d="m93.2 180.6c57.2 0 90-36.9 97.3-90.3 7.3-53.3-29.5-91.6-97.3-90.3-67.8 1.4-99.3 41.2-92.2 97.4 7 56.1 41 83.2 92.2 83.2z" fill="#ed2e60"/><path d="m106.2 31.1c14.6 0 50.1 7.6 80.2 18.2 4.7 12.1 6.1 26 4.1 41-4.6 33.4-19.2 60.4-43.5 75.9-4 .4-8 .7-12.2.7-55.3 0-100.2-38.2-100.2-85.3s16.3-50.5 71.6-50.5z" fill="#dd2756"/><path d="m147.8 9.9c26.2 11.9 41.4 33.6 43.4 61-2.5 15.6-10.8 29-23.8 40.5-18 16.1-53.9 9.6-83.2-13-25.9-20.1-39.1-55.2-25.1-70.3 8.3-8.9 29.9 7 52.2 0 10.1-2.1 19.1-7 27-14 2.5-2.2 5.8-3.7 9.4-4.2z" fill="#fb3f92"/></g><g fill="#62985c"><path d="m139.8 236c-3.7 2.2-7.3 3.2-11 0-4-79.3 32.1-154.6 96.3-229.9 5.6-4.5 8.6-6.5 9.1-6 .8.7-.2 4.3-3 11-57.3 81.3-91.4 123.5-91.4 224.9z"/><path d="m225.1 11.1c1.5-2.1 2.6-3.5 3.2-4.4 3.6-4.6 5.9-6.8 6.9-6.6.9.1.9 4.5 0 13-4 90.4 8 101.4 34.1 139.6-2.7 5.5-5.4 4.8-8 6-23.1-36.1-38.2-43.2-36.2-147.6z"/><path d="m.3 124.6c23.1 23.1 75.3 15 107.4-2 44.7-23.8 71.3-53.3 81.3-94.4 11.5-7.7 26.1-14.2 42.2-17.1l3-11c-17.6 4.9-36.7 11.3-50.2 20-33-9.7-67.7-9.4-105.4 8.1-27.9 12.9-44.1 26-57.2 41.1s-19.4 34.7-21.1 55.3z"/></g><path d="m181 27.2c-14.3 30.7-33.2 49.2-63.3 64.2-28.2 14.1-69 27.1-99.1 6.2 45-49.1 92-75.2 140.8-78.2 7.9 1.6 15.2 4.2 21.6 7.8zm-27.5-8.8h-.1c-49.8.4-94.8 26.5-134.9 78.3l-.1.8c3.8-33.5 34.4-54.3 63.2-67.3 23.7-10.7 49.8-14.8 71.9-11.8z" fill="#67be6d"/><g fill="#fff"><ellipse cx="309" cy="159" rx="3" ry="6"/><ellipse cx="182" cy="259" rx="6" ry="4"/></g></g></g></svg>
