<svg height="450" viewBox="0 0 450 450" width="450" xmlns="http://www.w3.org/2000/svg"><g fill="none" fill-rule="evenodd" transform="translate(51 17)"><path d="m348 364.7c0 11.5-4.7 21.9-12.4 29.4-7.5 7.5-18 12.1-29.6 12.1-8.5 0-16.3-2.5-22.9-6.7-2.5 2.9-5.3 5.4-8.5 7.5-6.7 4.6-14.8 7.2-23.6 7.2-10.7 0-20.5-4-27.9-10.5-6.2-5.4-10.8-12.7-12.8-20.8-2.1-1.3-4-2.7-5.8-4.2-6.6 3.5-14 5.5-22 5.5-12.8 0-24.5-5.2-32.9-13.6-6.6-6.7-11.3-15.3-12.9-25-3.7 1-7.7 1.6-11.7 1.6-11.6 0-22.1-4.6-29.6-12.1-7.3-7.1-11.9-16.7-12.4-27.5-6.2-7.2-10-16.6-10-26.9 0-9.4 3.2-18 8.5-25 1.8-2.4 3.9-4.6 6.2-6.5-5.7-.3-11.1-1.8-16-4.1-7.1 4.4-15.8 7.1-25.2 7.1-11.8 0-22.5-4.2-30.2-10.9-8.3-7.2-13.3-17.2-13.3-28.1 0-4.2.8-8.4 2.2-12.2-3.3-6.1-5.2-13-5.2-20.3 0-5.3 1-10.3 2.7-15-1.7-4.5-2.7-9.4-2.7-14.5 0-12.6 5.9-24.1 15.9-32.4 7.7-6.4 17.8-10.9 29.1-12.2.3-11.1 5.3-21.2 13.4-28.5 7.2-6.6 16.8-11 27.6-11.8-2.3-4.9-5.3-9.4-9.5-13-6.3-5.5-10.4-7.6-34-7.6-5.8 0-10.3-2.6-13.4-6.8-2.6-3.4-4.1-8.2-4.1-13.3 0-4.6 1.2-9.3 3.5-13.2 2.4-4.2 6-7.4 10.5-9.1 7.4-2.7 17.2-3.8 29.6-3.1.3.1.5.1.8.1.2 0 .4.1.7.1 22.5 4.8 30.8 12.4 41.5 30.2 5 8.4 8.6 20.6 11 33.8 1.5-2.3 3.1-4.3 4.8-6.3 8-8.6 19-13.9 31.1-13.9 11.7 0 22.5 5 30.3 13.2 3-.8 6-1.2 9.2-1.2 10.9 0 20.8 4.8 27.9 12.7.4.4.8.9 1.2 1.4 1.1-1.1 2.2-2.2 3.4-3.2 7.8-6.7 18.6-10.9 30.5-10.9s22.7 4.2 30.5 10.9c8.5 7.2 13.5 17.2 13.5 28.1 0 5.9-1.5 11.6-4.2 16.7 3.1 2.6 5.9 5.6 8.1 9 4.5 6.7 7.1 14.7 7.1 23.3 0 8-2.2 15.5-6.1 21.8-2.2 3.7-5 7-8.2 9.8.6 1.6 1 3.4 1.1 5.1 1.4 4.2 2.2 8.7 2.2 13.3 0 3.6-.4 7.1-1.3 10.4 7.5 7.6 12.3 18.5 12.3 30.6 0 11.5-4.3 21.8-11.1 29.4-2.4 2.7-5.2 5-8.3 6.9 4.7 2 8.8 4.6 12.1 7.8 10.5.7 20 5.1 26.9 12 7.7 7.5 12.4 17.9 12.4 29.4 0 7.8-2.2 15-5.9 21.3 2.2 3.6 3.8 7.7 4.5 12 .9 3.4 1.4 7 1.4 10.7zm-99-91.3c1.8-1.4 3.8-2.6 5.8-3.6-1.9-1.5-3.8-3.2-5.5-5-3.2-3.4-5.8-7.5-7.7-12-.9.5-1.8.9-2.7 1.3 2.6 4.6 4.4 9.6 5.4 14.9 1.5 1.7 3.1 3.1 4.7 4.4zm-148.9-137.5-4.8-3-5.7 4.3 6 6.1z" fill="#fff"/><g fill="#cc706f" transform="translate(34.299038 9.215924)"><path d="m130.5 119.8c10.7.8 21.4.2 31-2l-1 7c-10.7 1.8-20.6 1.7-30 0z" transform="matrix(.88294759 -.46947156 .46947156 .88294759 -40.164194 82.802658)"/><path d="m163.7 136h30v6h-30z" transform="matrix(.93969262 -.34202014 .34202014 .93969262 -36.763813 69.502054)"/><path d="m183.6 266.2c19.3 8.7 32 4 45 0v13c-13.6 5.5-29 4.1-45 0z" transform="matrix(.76604444 .64278761 -.64278761 .76604444 224.673043 -68.244459)"/><path d="m64.4 229.5c11.2 5.5 20.5 2.4 30 0v8c-10.3 3.1-20.5 5-30 0z" transform="matrix(.5 -.8660254 .8660254 .5 -163.866451 186.239564)"/><path d="m94.5 165.9c6.8 4.4 14.2 6.6 22.7 4.6v9c-7.1-.1-13.8-.2-30 0z" transform="matrix(.76604444 .64278761 -.64278761 .76604444 134.923517 -25.294006)"/><path d="m8.2 3.5c-10.1 3.7-10 23 0 23 28.7 0 33 3.5 40.5 10 12.9 11.2 17.3 28.7 20 45 9.3 5 14 7.5 14 7.5-2-22-5.4-48.2-14-62.5-9-15-15.9-21.5-35-25.5-10.7-.7-19.2.2-25.5 2.5z"/></g><g fill="#974ab4"><ellipse cx="89.5" cy="107.715924" rx="34.5" ry="31.5"/><ellipse cx="158.5" cy="90.715924" rx="33.5" ry="36.5"/><ellipse cx="198" cy="98.215924" rx="29" ry="32"/><ellipse cx="261" cy="95.215924" rx="34" ry="29"/><ellipse cx="242" cy="128.715924" rx="32" ry="30.5"/><circle cx="274" cy="144.215924" r="32"/><circle cx="263" cy="194.215924" r="32"/><circle cx="196" cy="179.215924" r="32"/><ellipse cx="135" cy="145.715924" rx="38" ry="33.5"/><ellipse cx="52" cy="151.215924" rx="42" ry="35"/><ellipse cx="45" cy="180.715924" rx="35" ry="33.5"/><ellipse cx="46.5" cy="213.215924" rx="33.5" ry="29"/><ellipse cx="90" cy="207.715924" rx="32" ry="31.5"/><ellipse cx="141" cy="217.715924" rx="32" ry="31.5"/><ellipse cx="115" cy="280.715924" rx="32" ry="31.5"/><ellipse cx="125" cy="305.715924" rx="32" ry="31.5"/><ellipse cx="251" cy="372.715924" rx="32" ry="31.5"/><ellipse cx="306" cy="364.715924" rx="32" ry="31.5"/><ellipse cx="306" cy="320.715924" rx="32" ry="31.5"/><ellipse cx="274" cy="306.715924" rx="32" ry="31.5"/><ellipse cx="233" cy="342.715924" rx="35" ry="36.5"/><circle cx="182.5" cy="337.715924" r="36.5"/><ellipse cx="196" cy="277.215924" rx="39" ry="38"/><ellipse cx="148" cy="295.215924" rx="39" ry="38"/><ellipse cx="180" cy="224.215924" rx="39" ry="38"/><ellipse cx="219" cy="210.215924" rx="39" ry="38"/><ellipse cx="94" cy="171.715924" rx="32" ry="31.5"/><ellipse cx="277" cy="235.215924" rx="29" ry="32"/></g><g fill="#8c5fe8" transform="translate(16 64.215924)"><ellipse cx="47.5" cy="76.5" rx="27.5" ry="22.5"/><ellipse cx="110.5" cy="236.5" rx="27.5" ry="25.5"/><ellipse cx="211.5" cy="277" rx="27.5" ry="24"/><ellipse cx="295.5" cy="295" rx="25.5" ry="24"/><ellipse cx="263.5" cy="238" rx="29.5" ry="24"/><ellipse cx="168.5" cy="214" rx="25.5" ry="24"/><ellipse cx="190" cy="212" rx="22" ry="31"/><ellipse cx="76" cy="147" rx="29" ry="24"/><circle cx="229.5" cy="66.5" r="27.5"/><ellipse cx="251.5" cy="32" rx="25.5" ry="28"/><ellipse cx="156" cy="25.5" rx="24" ry="25.5"/><ellipse cx="187" cy="24" rx="15" ry="20"/><ellipse cx="98.5" cy="217.5" rx="27.5" ry="25.5"/><ellipse cx="127" cy="153" rx="29" ry="28"/><ellipse cx="114" cy="84" rx="31" ry="30"/><ellipse cx="180.5" cy="107.5" rx="27.5" ry="20.5"/><ellipse cx="249.5" cy="119.5" rx="27.5" ry="20.5"/><ellipse cx="153.6" cy="266.5" rx="22" ry="16.5" transform="matrix(.64278761 .76604444 -.76604444 .64278761 258.993815 -22.498225)"/><path d="m52 116.5c-22.2-2.5-34.2-12.3-36-29.5-20.5 15.6-20.5 32.7 0 51.5 2.2 12.3 8.6 24.3 25 18.5-5.7-27 1-32 11-40.5z"/><path d="m180 147c13.8 29.7 32 31.5 54 12.5-18.8-9.6-20.7-22.7-20-39.5-4.9 19.2-15.4 25.3-34 27z"/><path d="m212 313.5c19.5-4.6 28-17.1 27-36.5 12.9 10.8 31 27 18 42s-30.6 9.7-45-5.5z"/></g><g fill="#fff"><ellipse cx="64" cy="133.215924" rx="4" ry="3"/><ellipse cx="135" cy="133.215924" rx="4" ry="3"/><ellipse cx="177" cy="83.215924" rx="4" ry="3"/><ellipse cx="198" cy="165.215924" rx="4" ry="3"/><ellipse cx="268" cy="178.215924" rx="4" ry="3"/><ellipse cx="190" cy="274.215924" rx="4" ry="3"/><ellipse cx="276" cy="293.215924" rx="4" ry="3"/><ellipse cx="230" cy="334.215924" rx="4" ry="3"/><ellipse cx="246" cy="117.215924" rx="4" ry="3"/><ellipse cx="264" cy="83.215924" rx="4" ry="3"/><ellipse cx="143" cy="207.215924" rx="4" ry="3"/><ellipse cx="121" cy="274.215924" rx="4" ry="3"/></g></g></svg>
