<svg height="450" viewBox="0 0 450 450" width="450" xmlns="http://www.w3.org/2000/svg" xmlns:xlink="http://www.w3.org/1999/xlink"><linearGradient id="a" x1="39.210807%" x2="83.297216%" y1="38.547997%" y2="90.465527%"><stop offset="0" stop-color="#f3396f"/><stop offset="1" stop-color="#bcb766"/></linearGradient><linearGradient id="b" x1="50%" x2="50%" y1="0%" y2="100%"><stop offset="0" stop-opacity="0"/><stop offset="1" stop-opacity=".2"/></linearGradient><g fill="none" fill-rule="evenodd"><path d="m415 279c-26 55-52 91-82 114-33 25-70 35-113 35-40 0-74-14-102-39-30-26-54-64-72-110-15-38-15-88 1-135-11-8-20-19-27-32-1-1-2-3-3-5 1-1 2-3 3-4 19-34 43-66 107-79 1-1 1-1 1-1 17 0 33 0 49 3 13-3 28-4 44-5 79-1 139 32 174 79 20 25 32 56 35 87 4 30-1 62-15 92z" fill="#fff"/><g transform="translate(44.551833 31.000577)"><path d="m175 387c79 0 135-33 186-143 52-110-28-246-184-244-156 3-199 159-166 244s86 143 164 143z" fill="url(#a)"/><path d="m177 0c10 0 20 1 30 2-78 8-134 90-141 186-7 101 67 195 154 174s130-69 154-174c1-7 2-13 3-19 1 25-4 51-16 75-51 110-107 143-186 143-78 0-131-58-164-143s10-241 166-244z" fill="url(#b)"/></g><path d="m196 101c41 16 79-8 54-34 14-22 3-58-36-29-35-31-74-40-114-38-59 13-82 43-100 75 21 37 61 54 109 54 27 0 55-2 87-28z" fill="#5bb668" transform="translate(28.551833 33.000577)"/><g fill="#5cd273" transform="translate(82.551833 38.000577)"><path d="m67 0c-34 0-58 10-60 17-4 12 44 13 75 12-71 13-86 44-81 58 10 28 50 24 92 16 27-6 55-18 59-41 2-14-16-22-31-27 8 1 27 0 21-6-20-21-44-29-75-29z"/><path d="m184 25c-11 0-16 12-14 19 3 9 8 16 18 16 6 0 13-7 11-17-1-12-5-18-15-18z"/><path d="m192 94c4 0 9-5 9-13s-5-14-9-14-8 6-8 14 4 13 8 13z" transform="matrix(.93969262 .34202014 -.34202014 .93969262 39.234625 -60.846058)"/></g></g></svg>
