<svg height="450" viewBox="0 0 450 450" width="450" xmlns="http://www.w3.org/2000/svg"><g fill="none" fill-rule="evenodd"><path d="m360.8 385.4c4.6 16.5 1.1 31.3-11.5 44.2-.7.7-1.5 1.5-2.2 2.2-1.1.2-2.1.4-3.2.6-8.7 1.5-15.5 0-21.2-3.1-30.5.4-59.5-5.7-87.1-18.5-4.2 4.3-6.8 6.2-9.4 8.2-.1.1-.3.2-.4.3l-2.7 2-17.6.1c-52.9 3.6-95.6-13.2-128.3-50.1-48.2-54.6-52.9-78.4-49.2-146.4 2.2-41.2 20.5-80 55.5-116.1.4-.8.8-1.7 1.2-2.6 5-9.7 11.6-17.8 18.9-25.1l6.3-24.4c-2.9-10.1-.9-23.1 7.7-36.1 1-1.5 2-2.9 3.1-4.2 1.5-.1 3.2-.2 4.8-.3 35-1.4 40.8 8.9 49.9 23.2.3.4.5.8.7 1.1.2.6.4 1.2.6 1.9.8 3.1.4 4.5 0 5.9-2.6 11-6 20.4-16 25.6-1.4 3.9-2.8 7.7-4.3 11.3 3.6 5.1 6.4 9.4 8.4 13 8.8 15.6 14.6 28.4 19.8 39.6 9.5 20.7 16.5 36.2 37.6 57.3 31.9 31.9 64 49.2 102 57.4 25.5 5.6 50.8 7 76 4.3.3 0 .6 0 .9-.1.4.1.7.1 1.1.1 9.8 1 14.4 5 17 9.2 2 3.3 2.9 7.2 2.8 11.6-.1 3.2-.9 6.8-1.6 10.4-.2.7-.3 1.3-.5 2l-.7 3.4-2.7 2.2c-11.2 9.3-22.5 17.1-34.1 23.5 3.8 5.7 5.4 11.3 5.4 16.7 0 4.8-1.8 9.7-6.3 14.4-3 3-7.4 6-13.3 8.9-6.6 3.1-15.4 6.1-26.4 9 3.3 3.5 6.1 7.7 8.2 12.6z" fill="#fff"/><g transform="translate(37 26)"><path d="m272.8 339c45.5-8.1 68.2-17.7 68.2-28.8s-11.2-22.1-33.5-33.2l-89.5 25.5z" fill="#ff76c7"/><path d="m64.5 79c-40 37.2-61.2 77.3-63.6 120.4-3.5 64.6.9 87.4 46.9 139.3 30.7 34.7 70.8 50.3 120.5 46.8h14.5c3-2.2 5.7-4 11.2-10-31.4-18.7-59.3-43.5-81.5-78z" fill="#ff7f56"/><path d="m60 83v60.5c-32.9 45.3-40.7 95.8-47.7 146.5-12.6-25.4-13.6-49.6-11.4-90.6 2.3-41.6 22-80.4 59.1-116.4z" fill="#000" opacity=".5" style="mix-blend-mode: soft-light;"/><path d="m83 30.2c-3.6-8-1.7-19.1 5.6-30.1 28.7-1.2 33.7 7 41.3 19-2.2 9.1-4 17.8-14.5 21.1-2.5 7.1-5 14.3-7.8 20.1 5 6.8 8.7 12.4 11.1 16.7 25.7 45.6 25.7 65.7 59.2 99.1 33.4 33.4 67.2 51.5 107.1 60.1 26.5 5.8 52.9 7.3 79.2 4.5 14.4 1.4 10.9 11.6 8.9 21.1-37.3 31-75.8 44.6-121.6 44.6 16.1 13.2 31.3 27.3 45.8 42.3 3.4 3.5 6 8 7.8 13.4l10 4.4c2 11.2-1.4 21.2-10 30.1-7.1 1.2-12.4-.4-16.8-3.4-48.9 1.4-93.9-15-135-49-61.6-50.9-78.8-88.1-102.6-144.7-15.9-37.8-14.1-76 5.6-114.7 4.8-9.6 11.5-17.4 18.9-24.5z" fill="#ffb41b"/><path d="m91.5 60.2c11.1-2.1 23.6 14.8 37.7 35.4 16.5 33.2 20.7 52 49.2 80.4 33.5 33.4 67.2 51.5 107 60.2 26.6 5.7 53 7.2 79.2 4.4.5.1 1 .1 1.4.2-53.7 28.6-109 30.5-165.3 18.7l51.6 46.8c-.1 0-.2 0-.3 0 16 13.2 31.3 27.3 45.7 42.3 2.5 2.7 4.6 5.8 6.2 9.4-60.4-7.4-120.1-37.1-177.9-88.4-37-39.8-72.4-72.4-76.9-143.7-1.7-26.7 18.9-61.3 42.4-65.7z" fill="#ffdf14"/><path d="m130 19.1c-1.9 8.1-3.6 15.9-11.2 19.9-13.1-8.3-25-10-36.3-9.5-3.2-7.9-1.2-18.7 5.9-29.4 28.9-1.2 33.9 7 41.6 19z" fill="#ff9325"/><path d="m197.1 193.5 111.2 104.6c-17.9 5.6-36.7 8.2-56.8 8.2 16 13.2 31.3 27.3 45.7 42.4 3.4 3.5 6 8 7.8 13.3l10.1 4.5c1.9 11.2-1.4 21.2-10.1 30.1-7.1 1.2-12.3-.4-16.7-3.4-7.4.2-14.6 0-21.8-.6l-44-129.7-35.2-77.9c3.3 3 6.5 5.8 9.8 8.5zm-3.7 181.9c-5.3 5.8-8.1 7.7-10.9 9.9l-.2.1h-14.5c-7.8.6-15.4.7-22.7.3-.8-18-1.3-34.4-1.7-49.1 15.2 15.4 32 28.1 50 38.8zm-81.4-296.4c12.6 16.3 23.8 35.7 33.4 57.9 5.3 31.2 9.3 53.9 12.3 68 7.8 36.7 17.4 73.4 29 110.3 1.6 21.2 9.5 43.2 16.9 61-17.4-7.9-34.2-18.6-50.3-32-3.5-2.8-6.8-5.6-10-8.4-1.3-48.3-.6-78.5 2.1-90.8 3.7-16.5 2.6-36.9-3.3-61.3-6.5-17.9-13.4-40.3-23.4-53.4-11.8 33.3-14.4 71.2-22.4 105.8-.4 49.8-5.5 87.5-3.4 137.1-17-7.9-32.3-19.4-45.7-34.6-.7-.8-1.4-1.6-2.1-2.4l-.1 1.3c3.5-59.3 5.8-94 19-147.1 8.1-23.9 24.1-61 48-111.4zm173 157.1c26.5 5.8 52.9 7.3 79.2 4.5 14.4 1.4 10.9 11.6 8.9 21.2-10.4 8.6-21 15.9-31.7 21.9l-60.5-48.5c1.4.3 2.7.6 4.1.9z" fill="#000" opacity=".5" style="mix-blend-mode: soft-light;"/></g></g></svg>
