<svg height="450" viewBox="0 0 450 450" width="450" xmlns="http://www.w3.org/2000/svg" xmlns:xlink="http://www.w3.org/1999/xlink"><linearGradient id="a" x1="38.168927%" x2="37.344349%" y1="46.66234%" y2="46.472168%"><stop offset="0" stop-color="#f8f584"/><stop offset="1" stop-color="#f08656"/></linearGradient><g fill="none" fill-rule="evenodd"><path d="m426.4 225.3c-1.4 54-24.2 102.5-60.6 137.4-36 34.6-85.5 55.8-140.8 55.8-55.6 0-105.9-21.6-142.3-56.5-36.6-35.1-59.2-83.5-59.2-137 0-34.1 8.4-65.9 23.7-93.5-5.2-5.6-9.9-12-14.1-19.3-.9-1.7-1.8-3.3-2.6-5 .8-1.6 1.7-3.3 2.6-4.9 19.5-34.7 48.6-64.1 113.1-69.2.3 0 .6-.1.9-.1s.6.1.9.1c1.6.2 3.1.3 4.7.5 8.7.8 17.5 1.7 25.9 3.3 14.6-3.2 30.1-5 46.2-5.4 58.8-1.1 109.2 19.8 144.9 54 36.9 35.3 58.2 85 56.7 139.8z" fill="#fff"/><g transform="translate(32.5 40.5)"><path d="m191.7 367.5c105.9 0 189.1-81.5 191.7-183.7 2.7-102.3-78-186-191.7-183.8-113.6 2.3-191.7 82.3-191.7 183.8 0 101.4 85.8 183.7 191.7 183.7z" fill="#ee9752"/><path d="m57.8 50.4c81.5 4.4 127.4 9.5 137.7 15.4 19.7 11.4-18.2 49.2-45.5 56-18.6 4.6-46.2 2.2-60.6 13.6-26.5 21-34.3 51.7-23.5 92.2 32.4 68.1 86.4 102.1 162.2 102.1 74.5 0 126.3-48.7 155.3-146.1v.2c-2.6 102.2-85.8 183.7-191.7 183.7s-191.7-82.3-191.7-183.7c0-52.8 21.1-99.8 57.4-133z" fill="#e65457"/></g><g transform="translate(89.488408 136.5)"><g fill="#efe74d"><ellipse cx="239.7" cy="9.1" rx="9.1" ry="9.1"/><ellipse cx="268.5" cy="95.3" rx="9.1" ry="11.3"/><ellipse cx="196.4" cy="105.1" rx="11.4" ry="9.1"/><ellipse cx="241.2" cy="156.6" rx="7.6" ry="9.1"/><ellipse cx="317" cy="97.6" rx="3" ry="9.1"/></g><ellipse cx="9.9" cy="86.2" fill="url(#a)" rx="9.9" ry="11.3"/></g><g fill="#f08656" transform="translate(45.5 145.573171)"><ellipse cx="15.2" cy="5.3" rx="3" ry="5.3"/><ellipse cx="3" cy="74.1" rx="3" ry="8.3"/><ellipse cx="174.4" cy="234.4" rx="9.1" ry="3.8"/><ellipse cx="295.8" cy="211" rx="9.1" ry="3" transform="matrix(.76604444 -.64278761 .64278761 .76604444 -66.425206 239.490029)"/><ellipse cx="74.3" cy="183" rx="6.1" ry="9.8" transform="matrix(.64278761 -.76604444 .76604444 .64278761 -113.651772 122.31355)"/></g><g transform="translate(41.5 41.5)"><path d="m175.6 89.7c3.7 7.8 5.2 15.7 6.1 23.5 12.4-8.7 23.4-18.1 31.9-28.8 16.2-1.1 31.4.7 45.6 5.3-4-9.6-11.1-20.5-21.2-32.7l12.9-22h-19.8c-4.6-8.1-9.6-12.5-15.2-13-8.4-.7-11.4.8-20.5 8.4-3.1-5.3-4.6-7.6-6.9-9.1-2.3-1.2-6.6-1.2-12.9 0-19.2-17.2-44.8-18.7-69.9-21.3-60.2 4.8-87.5 32-105.7 64.6 20.8 36.8 57.7 48.8 101.9 48.6 28.1-1.2 52.9-8.6 73.7-23.5z" fill="#4dbb5a"/><path d="m215.9 22c5.5.5 10.5 4.7 15 12.5l.2.5h19.8l-12.9 22c10.1 12.2 17.2 23.1 21.2 32.7-14.2-4.6-29.4-6.4-45.6-5.3-8.5 10.7-19.5 20.1-31.9 28.8-.4-3.8-1-7.6-1.9-11.5 20.5-16.6 34.1-31.2 40.7-43.9-4.3-.7-8.5-.9-13-4.6-3-9.5-.8-21.7 2.2-31.2h.2c1.7-.2 3.7-.2 6 0zm-164.2 3.1c14.5-17.3 37.1-25.4 68.4-23.6 27.2 3.8 47.7 17.1 61.6 38l-29.7-3.8c15.9 4.7 32.7 8 43.4 19.8-13.3 20.6-31.2 38-61.6 47.1-17.5 3.8-65.1 9.4-87.4-24.3 7.6-16.7 18-38.6 81.3-46.4-30.2.7-59 .6-76-6.8z" fill="#60de61"/></g></g></svg>
