<svg fill="none" viewBox="-25 -25 550 550" xmlns="http://www.w3.org/2000/svg"><circle cx="250" cy="250" fill="#dce5ee" r="250"/><ellipse cx="279.091" cy="222.022" fill="#a57fb6" rx="193.636" ry="193.141"/><ellipse cx="279.091" cy="222.924" fill="#b5637e" rx="171.818" ry="172.383"/><ellipse cx="279.091" cy="224.729" fill="#dfae41" rx="155.455" ry="156.137"/><ellipse cx="271.818" cy="231.047" fill="#97c39a" rx="97.2727" ry="95.6679"/><path d="m338.5 231.047c0 33.056-26.995 59.872-60.318 59.872s-60.318-26.816-60.318-59.872 26.995-59.872 60.318-59.872 60.318 26.816 60.318 59.872z" fill="#d896db" stroke="#898d89" stroke-width="3"/><path d="m300 188.628c1.212.903 3.818 3.61 4.545 7.22l.91 2.708 2.727.902 2.727 1.806 1.818 1.805 2.728 2.707.909 3.61v3.61l-1.819 2.708-2.727.903h-6.363-5.455l-6.364-.903-4.545-.903-6.364-1.805-.909-2.707-.909-4.513v-4.512l.909-4.513 1.818-4.513 2.728-2.707 4.545-1.805h4.546z" fill="#efb6eb"/></svg>