<svg fill="none" viewBox="-25 -25 530 530" xmlns="http://www.w3.org/2000/svg"><path d="m313.5 230-6.5 10.5-1.5 2 3.5 7 1 3.5 2 3.5 4 14 10 12 5 7 7.5 4.5 14.5 2.5 15.5-2.5 21.5-10 14-4.5 11-1.5 15.5-.5 9.5-.5 10 1 15 6v-4.5l-1-3.5v-3.5l-3.5-10-3.5-10.5-6-14-7-11.5-6-6.5-8-7-10-7.5-11.5-6-10-4-8.5-1.5-8-1-4.5-1h-4l-4 1-9 1-6 1.5-6 3.5-5 4-3 3-3 3.5-5.5 5.5-10.5 6z" fill="#575758"/><path d="m22 161.734v-7.004-8.73l61.5-4.5h32.214l29.453 7.5-9.639 4.457-12.317 8.277-17.672 11.461-3.213 17.828v19.102 24.195l7.174 17.828 13.711 4.457 24.289 2.895 38-2.895 39.5-4.457h20l20.5-10.187h28.003l11.497-8.961-4 22.969-7.497 16.554h-7.497l-25.705 7.004-37.485 10.825-43.912 12.734-29.988 7.641-14.995 1.273h-21.42l-34.2726-28.016-29.453-27.379-4.284-4.457-8.0327-5.73h-6.4261l1.6066-12.098-1.6066-8.914-1.6065-5.73-.5355-6.367-1.071-3.184-.5355-6.367-1.071-4.457-1.6066-8.278-1.6065-7.523v-4.574-10.824z" fill="#bdbfc3"/><path d="m50 322.2-2.5-9h6.2621l48.3699 37.8h4.837l7.524 1.2 161.234-31.8 6.449-1.2h2.15l6.449-4.2 1.613 4.2 1.612 1.2.5 4.6v5.5l-.5 4-2.5 3-5.562 2.7-64.438 12.3-28 5.5-20 4-17 4-24.5 4.5-47.0661 8.1-14.511 2.4h-6.4493l-3.4736-1.5-3-2-2-3.5-1-3-.7379-6.2-2.6872-11.4-1.0749-11.4v-10.2z" fill="#3c80b5"/><path d="m47.5 313.2 2.5 9v9.6 10.2l1.0749 11.4 2.6872 11.4.7379 6.2 1 3 2 3.5 3 2 3.4736 1.5h6.4493l14.511-2.4 47.0661-8.1 24.5-4.5 17-4 20-4 28-5.5 64.438-12.3 5.562-2.7 2.5-3 .5-4v-5.5l-.5-4.6-1.612-1.2-1.613-4.2-6.449 4.2h-2.15l-6.449 1.2-161.234 31.8-7.524-1.2h-4.837l-48.3699-37.8zm0 0v-8.7" stroke="#2e5370" stroke-width="8"/><ellipse cx="65" cy="211" fill="#8bb8dc" rx="30" ry="38" stroke="#3f7096" stroke-width="4"/><ellipse cx="73.8235" cy="216.429" fill="#487aa5" rx="5.88235" ry="7.2381"/><path d="m60.8824 218.841c0 3.998-2.6337 7.238-5.8824 7.238s-5.8824-3.24-5.8824-7.238c0-3.997 2.6337-7.238 5.8824-7.238s5.8824 3.241 5.8824 7.238z" fill="#487aa5"/><path d="m75.5 38 15-5 21.5 116.5-70 2h-10.5l-6.5-4-5-18-4.5-25-2.5-17v-9.5l4.5-7 7.5-8 8.5-5.5 8.5-4.5 15.5-7.5z" fill="#484447" stroke="#000" stroke-width="5"/><path clip-rule="evenodd" d="m123.737 170.631 1.656-3.508 2.208-1.754h3.312 3.312l2.208 3.508 1.104 4.092 2.208 5.846 1.656 6.431 1.656 5.262 1.104 4.092 2.208 7.6v4.677l1.656 2.923 1.105 4.677 2.208 3.508 1.656 1.169 4.416-1.169 12.696-4.677 59.618-19.293 44.161-10.523 11.041-1.169 4.416 1.169 1.656 5.846v2.339l-4.968 3.508-62.378 13.446-69.554 21.631-6.073 1.753-5.52-1.169-3.864-2.338-15.456-52.031v-3.508z" fill="#ccc9c8" fill-rule="evenodd"/><path clip-rule="evenodd" d="m148.025 145.492 17.113-4.092 38.089-7.015 56.773-21.631 1.5-6.254 6.5 8 3.5 4.5 5.697 6.5 4.803 10.638 1 6.362 2.272 11.25-.757-5.25 1.515 10.5 1.47 5 2.24 6.631-1.12-3.316 2.378 5.654 1.502 5.846 1 2.685 4.122 1.992 7.728 1.17 5.52-.585 23.737-.585h17.393l12 1.17 5.5 1.338 8 2-10 1-8 1-4 2-5.5 2-5 3.5-1 1.5-4.5 3.5-2 1-1.5 2-3 2.5-3.361 2.969-1.639 1.531-1.5 2-3 2.5-3 3-4.5 4.5-4 4-3.5 4.5-3.5 5.5-3.5 4-24.303 8.808-30.697 6.192-32.785 3.162-56.305 5.338h-16.009l-16.008-5.338-16.009-8.185-7.728-12.477-1.656-17.5v-33.162l1.656-18.707 11.344-17.539 30.057-8.184zm-22.632 21.631-1.656 3.508-.552 2.338v3.508l15.456 52.031 3.864 2.338 5.52 1.169 6.073-1.753 69.554-21.631 62.378-13.446 4.968-3.508v-2.339l-1.656-5.846-4.416-1.169-11.041 1.169-44.161 10.523-59.618 19.293-12.696 4.677-4.416 1.169-1.656-1.169-2.208-3.508-1.105-4.677-1.656-2.923v-4.677l-2.208-7.6-1.104-4.092-1.656-5.262-1.656-6.431-2.208-5.846-1.104-4.092-2.208-3.508h-3.312-3.312z" fill="#fdf8ef" fill-rule="evenodd"/><path d="m305.5 241.5 9-12.5 10-10 6-6 10-9 10-8 8.5-3.5 11.5-2h5 6l14 2 11 3.5 12 6 12 8.5 9.5 8.5 6 8 7.5 10.5 3 8 4.5 11 2.5 9 2.5 9 1 9v4.5l-13.5-6.5-9.5-2h-7.5-6-12l-15.5 2-16.5 5.5-7.5 3.5-16.5 8-12 7-14 9.5-20 12-16 5.5h-4.5" stroke="#000" stroke-width="5"/><path d="m105 29.5-13.5 3.5 21.5 116h9.5l12-2 12.5-2 14-2.5 12.5-3 12-3 17-4 13.5-4 14.5-4.5 8-2.5 9.5-3.5 8-3 5-5v-8.5-12.5-11.5l-1.5-11-1.5-7.5-2-9-2-8-2.5-9-2-6.5-5.5-6.5-5.5-5-8-2h-14.5-11-13.5-12l-15.5 2-12 2-12 3-13 3.5-11.5 3z" fill="#565656" stroke="#000" stroke-width="5"/><path d="m42.0728 254.562 8.002 6.118 58.1472 47.835 5.335 3.893h10.136l12.803-2.225 146.169-36.153 8.835 1.47 1 7 1.5 14.5-2.5 9-5.634 4.183-3.201 2.225-146.169 27.255-9.496 3.337-6 2-7.443 1-8.557-1-5.313-2-9.0689-7.231-64.5492-47.278-6.4016-4.45-1.0669-2.224-1.6004-6.119v-6.674-5.024l1.6004-4.432 1.0669-2.781 2.8327-4.45 3.5689-3.337h2.9311l.5-.5 2.5.5h3.1378z" fill="#ad244b" stroke="#6b1742" stroke-width="8"/><path d="m302.5 244 1-4 1.5 1 2 2 2 2 1.5 4 .5 4 1.5 5 2 5 2.5 6.5 3.5 5 2 3 1.5 2.5 3.5 3 3 3.5 2.5 1 2 2 2 1 3 2 3 1 3.5.5 4.5.5h5l5-.5h5l-5 2.5-2.5 1.5-4 2.5-5 3.5-11 7.5-14.5 8.5-9 5-8 3.5-4.5 1.5h-3.5l-3-.5-1-4-1-5v-5.5-2l-1-3 2-4 1-3.5 1-5v-3.5-4.5l-.5-3.5-.5-4.5-1-5-1-4.5v-1.5l1-2.5 1-2 1.5-4 1.5-3 1-3 .5-2.5 1-4.5 1-3z" fill="#464547"/><path d="m34 315 9.5-4.5 1 7 2 5-.5 8.5v11l1 9 1 5.5 1.5 8 2 7 1.5 5.5 3 3.5-1.5 6 1.5 10 1.5 3.5 3 6 1 5.5 1 5-1 5.5-2.5.5-7.5 1.5-8 1-6.5-2-5.5-1-4-10.5-2.5-15-2.5-14.5-1.5-10.5-2-16.5v-8l-2.5-5 1-4v-7.5l-1-7 7-4.5z" fill="#b6b5b5"/><path d="m15 324 1 13v7.5l1 7.5 1.5 9.5 1.5 11 1.5 11.5 1.5 9.5 1 10 1 7.5 4 8.5 3 4.5 4.5 1.5 5 1h5.5 4.5l4.5-1 5.5-1 1.5-.5" stroke="#848283" stroke-width="5"/><path d="m301.5 334.5-5.5-.5-.5 3.5-1.5 2.5-2.5 2-5 2-25 4.5-60 11-56.5 11.5-42 8-27.5 5-17-1.5v8l2.5 11 3.5 12 4 12.5 4.5 7 7 10.5 6 6 6 4 6 2.5 41.5 3 10.5-4h21l18-3h17.5l16.5-2.5 21.5-3.5 21-4 20-1.5 16.5-8.5 19.5-5.5 11.5-7.5 11-6 12-10 3.5-1.5 3-1.5 2-.5 8-4.5 10.5-8 6.5-5.5-3.5-3-2.5-16 .5-17.5-1-18 1-10-.5-10 4-13 5-6.5-3.5 1-5 2.5-11 5-16.5 8.5-22 14.5-14.5 8.5-13 5.5-3 .5z" fill="#464542"/><path d="m386 296.5 5-8.5 5.5-2 4.5-1.5 6-1.5h2.5l2.5-.5 5-.5h4.5 7.5 9 6l5.5 1 5 1.5 5 2 5 2.5 3 1.5 1.5 2.5 2 9 1 10.5 1 8.5v11.5 14.5 6.5l-1 5-1 3.5-.5 3-1 1.5-5-2.5-7.5-1-11-1h-8l-9 1-6 2.5-6 2.5-3 5.5-9 3.5-5.5 1.5-10.5 3-3-2-1.5-2.5v-5l-2.5-8v-4.5l1-11v-8.5-7.5-9.5-9-5-5z" fill="#565656"/><path d="m467 284 3.5 15.5 2.5 15 1.5 11.5v7.5 6.5 7 7.5l-1.5 11-4 5-3 3.5-10.5 7-9 5.5-17.5 9.5-15.5 7-14 6.5-8.5 3-10.5 3-14 4-15 4.5-23.5 6.5-14 4-20.5 5-45.5 6.5-28.5 4.5-53.5 5-27 2.5h-25.5-14l-8.5-2.5-13.5-11.5-7-10.5-6-12-2-6.5-1.5-6.5-1.5-6.5-1.5-5.5-1-4.5-.5-5.5v-3-1.5-1.5" stroke="#000" stroke-width="5"/><path d="m293 437.5-26 3 27.5-7.5 13.5-5 12.5-4.5 11-5 7.5-4.5 8-6 11-8 7.5-4 8.5-5.5 6.5-4 15-10 19.5-10.5 5.5-3 5.5-3 5.5-1.5 6-1h5.5l6 1 11.5 2.5 9 5-6 7.5-14.5 9-25 13.5-24 11-36.5 11.5-25 7-26.5 7.5z" fill="#242425"/><path d="m17.5 60-8.5 11-3.5 7v10.5l1.5 8.5 2.5 16.5 3.5 17.5 1 5 3 9.5v24.5 13.5l4 18.5 2 13 2 10 2 8-.5 4-.5 3.5-5 1-4.5 4.5-4.5 5.5-3.5 12v14l4 11.5 11.5 8.5 13.5 10.5-4 2-3 1.5-8.5 3.5-6 3-3.5 3-4 6.5v8 8l.5 4 7 50 1 8 1 7 6 13 5.5 5.5 8.5 2.5 8.5.5 7.5-.5 7-2 9 14.5 3 4 9 7.5 4.5 4 5.5 2 6.5 1.5h42.5l37-3 38-3.5 2-.5 5-1 63.5-9 8-1.5 75.5-20.5 12.5-3.5 17.5-5 5-2.5 18.5-8.5 19-9.5 13-7.5 7-4.5 6.5-4 6-6.5 5.5-8 1.5-12v-28.5l-2-13-2.5-16.5-1.5-8-1.5-7-1.5-10.5-8.5-24.5-3.5-10.5-4.5-6.5-8.5-12-9.5-9.5-12-9.5-13-7.5-16-5.5-13.5-2-5.5-.5-4.5-.5-4-1-4.5-1-10.5-1.5-49 1.5-6.5-.5-2-1-1.5-4.5-1.5-4.5-3-8.5-1.5-7-1-6.5-1-5.5-1-6-2-6-1.5-3-1-2-3-5-5.5-5-5.5-3.5v-35.5l-1.5-11-2-10-2-7.5-2.5-9.5-1.5-7-2-6-3-5-4-5-2.5-2-2.5-2.5-3-2.5-5-1.5-10-1.5h-11-16-12-10.5l-14.5 2-11.5 2-8.5 2-9 2.5-9 2.5-15 4-11 3-11.5 2.5-7.5 2.5-7 2.5-8 3.5-7 3-8 3.5-7.5 3.5-7 3.5-8.5 5z" stroke="#fcfcfd" stroke-width="10"/></svg>