<svg fill="none" viewBox="-50 -40 955 995" xmlns="http://www.w3.org/2000/svg"><path d="m240.5 287.5 11-27.5 2.5-5.5 7.5-30.5 15-62 22-62 18.5-58 6.788-14.7591 7.712-10.7409 7.553-6.95073 5.947-5.04927 10-1 11.5.5 8.5 4" stroke="#000" stroke-width="5"/><path d="m20.5 365-13.5 11.5-4 8.5 2 8 7.0152 12.115 15.5469 19.574 20.0606 18.571 29.5894 26.601 32.2879 23.139 36.5 26 35 25.5 26.5 18.5 16 11.5 3.5 16 6.685 43 9.315 47.5 8 44.5 8.5 44.5 13 56.5 6.5 28.5 9 26.5 10.38 13.983 9.529 4.517 14.591 1.5 14-4.5" stroke="#000" stroke-width="5"/><path d="m547 736 11 3.5 18.5 4.5 19.5 4 23.5 4.5 41.5 7 51 7 38.5 5.5 18.5 1.5 19.5.5 12.5-1.5 10-7.5" stroke="#000" stroke-width="5"/><path d="m8.5 377.5 7-8v10.5l3.5 12.5 10.5 11.5 12.5 11.5 22 18 29.5 19.5 115.5 68 100 43-9.5 102.5v149.5l3 41.5 7.5 25 7 11 6 3.5 11 1-4 2h-8-5-7l-10-6.5-5-5-5.5-10-5.5-14-11.5-45-10.5-46-34.5-186-1.5-10-2.5-5.5-6.5-5-133-95-17.5-14.5-18-16.5-15.5-14.5-12.5-14-6.5-8.5-5.5-7-2.5-4.5-1.5-4v-4z" fill="#2b622f"/><path d="m359.5 5 9 .5-5.5 4.5-13.5 5.5-11 11.5-2.5 9-4.5 16 4.5 13.5-12.5 24.5-4.5 54v38 20.5 26.5 31 17h-19.5-17.5l-37.5 5 9.5-22.5 13-47.5 9-39 11.5-37 12-33.5 8-24.5 7.5-26 8.5-21 8-10.5 9.5-10.5 9-5z" fill="#327235"/><path d="m366 5.5h4 5.5l8 4 7 7 205 197.5 107-7.5h47.5l30.5 2 17.5 2.5 12 12.5 4.5 10.5 2.5 13.5v14l-2.5 23-4.5 16.5-9.5 25.5-9 27.5-13.5 33.5-19.5 42-15.5 29.5v11.5l6 10.5 9.5 22 7 20 12.5 34 10.5 29.5 7.5 23 7.5 26.5 6.5 22.5 3.5 20.5 3.5 18.5 3.5 24v14.5 11.5l-3.5 13-7 7-5.5 2.5h-9.5-8.5l-11.5-2.5-25-7-29.5-8-31-10-33.5-11-30-13-15.5-7-11-6-10-6.5-10.5 10-12.5 12.5-21.5 18-23.5 21-28.5 22.5-51 42-45 36.5-36 27.5-14.5 8-12 2-12.5-2-6.5-4.5-5.5-10.5-7.5-24.5-3-42.5v-48.5-57-44.5l3-42.5 3-54.5-6-3-28-12.5-41-20.5-32-17-37-21-36-21.5-34-21-25-16.5-23.5-19-13.5-12.5-10.5-11-4.5-10.5v-13l4.5-6 20.5-14.5 56.5-25 55.5-17.5 47-12 46.5-12 36.5-5h37.5v-81.5-56.5l4-45 3-24 3-10.5 9-32.5 10-14z" fill="#57b98f"/><path d="m557.529 737.5-7.529-2 14.054-12 25.098-24.5 9.348 6 11.733 6.5 49.693 21.5 63.245 20.5 52.704 14 11.043 2.5h13.051l8.031-1-4.016 2-7.529 1h-15.058l-15.56-1-24.094-2-25.097-3.5-32.627-5-30.116-4.5-25.6-4.5-22.085-4-18.572-3.5-16.062-3z" fill="#275d44"/><g fill="#80c7a3"><path d="m358.5 20-3.5 8-5.5 15-3 9.5-2.5 11-2.5 12-1.5 16-1.5 12.5v21 32 34.5l3-6 4.5-9 9-16.5 9-17 9.5-15 10-14 8.5-10 8-8 8-2.5h7.5l8.5 5 8.5 4 15 11.5 63 46 8 4 2.5-4-10.5-14-13.5-15-12-11.5-11.5-11.5-10-9.5-16-14.5-15-15.5-17-16-15.5-15-10-9.5-9-8-7.5-4h-9.5z"/><path d="m709.5 237-28-13.5h40 23 13l15 3 14 5 7.5 5 4 5 2.5 9v11 13l-2.5 13.5-2 10.5-3.5 14-5.5 18-5 13.5-4 9.5-5.5 9.5-5 8.5-5.5 10-8 12-9.5 10.5-10-4.5-5-10 5-14 3.5-7 6.5-15 3.5-12.5 2.5-10.5 3.5-12 3.5-12.5 2-11.5v-10-10l-3.5-9.5-5.5-8.5-6-6-6.5-4.5-8.5-4.5-8-2z"/><path d="m680 712.5-25-9-14-7.5h6.5l15.5 3 13 2 14.5 2.5 23 3.5 12 2 18 1.5h14l11-1.5 6.5-2 7-5.5 1.5-9-1.5-15-2-17.5-2.5-16.5-2.5-14.5-5-20-3-7.5v-9h8l5 4 7.5 12.5 4 11.5 5 13 6.5 17 4 15 4 17.5 2.5 20.5v17.5 12.5l-2.5 9.5-4 7h-10.5l-33.5-7-42.5-15.5z"/><path d="m320 740v-20.5l4-7h7.5l4.5 11.5 10 16 9 15 4.5 16 8.5 19 9 8.5 9 5h21.5l19-5 16.5-8.5 14-10 12-9 12-4 5.5 4v4l-5.5 5-12 10-20 19-22.5 19-19 15-17.5 14.5-35 21-9 4-10-4-4.5-7.5-7.5-13.5-4-19v-22.5-17.5-23.5-20z"/><path d="m111.5 385.5v-9.5l6-11 7.5-9.5 8.5-6.5 24.5-10.5 22-10 16.5-7.5 16.5-8 16-8-6.5-3-17.5 3-41 11-39 12.5-43 15.5-25 11.5-12 9.5-5.5 11v13.5l10.5 13.5 32 24.5 35.5 20.5 40.5 22 26.5 11 44.5 13-9.5-9-10-9-13-11.5-12-10-9-6.5-17.5-11.5-13-9-11.5-11.5-8.5-7.5-7.5-10z"/></g></svg>