<svg height="450" viewBox="0 0 450 450" width="450" xmlns="http://www.w3.org/2000/svg" xmlns:xlink="http://www.w3.org/1999/xlink"><linearGradient id="a" x1="24.508663%" x2="25.119609%" y1="54.077825%" y2="53.806763%"><stop offset="0" stop-color="#ee0256"/><stop offset="1" stop-color="#fb0063"/></linearGradient><g fill="none" fill-rule="evenodd"><path d="m389.9 339.6c-35.5 39.8-85.5 50.9-107.1 55.4-27.9 5.9-112 19.4-168.2-22.7-60.3-45.3-83-99.6-87.9-145.1-5.6-53.4-3.3-94.3 14.8-149.9 2.4-7.4 7.9-13.7 17.3-18.1 2.6-3.4 5.1-6 7.3-7.8 2.1-1.8 4.1-2.9 5.8-3.5 4-1.5 7.3-1 9.9.2 3.1-.6 5.6.2 7.5 1.1 118.2 58.2 260.3 128.6 297.1 146.9l8.6 4.9c18 10.2 25 24.9 25 24.9s.1.3.4 1.1c3.7 11.7 5 22.6 4.5 33.2l.1 1c-1 17.9-7.2 35.1-15.9 51.2-5.5 10.1-11.9 18.9-18.8 26.7z" fill="#fff"/><g transform="translate(34 57)"><path d="m34.7 9c-9.7 3.1-15.6 7.9-17.7 14.4-17.6 54.1-19.8 93.9-14.3 145.8 4.6 43.4 26.5 95 83.9 138.1 53.5 40.1 133.6 26.5 160.2 21 24.4-5.1 87.2-18.8 119.2-77.4 12.9-23.6 19.9-49.7 11.1-77.3z" fill="#0eae4f"/><path d="m380.6 202 .4 2.6c-1.2 16.1-6.8 31.5-14.7 46-31.9 58.5-94.5 72.1-118.9 77.2-5.8 1.2-14.2 2.9-24.4 4.2 84.9-32.1 137.4-75.4 157.6-130z" fill="#0d7334"/><path d="m43.5.2c115.5 56.8 251.6 122.8 309.1 150.7 17.5 8.5 24.4 22.4 24.4 22.4-11.6 0-27.6 36.8-46.5 57.9-32.9 36.4-57.3 59.9-104.7 75.7-78.1 26-165.4-11.8-199.7-92.8-18.6-43.8-24.2-100.9-10.5-166.5 6-29.2 23-49.8 27.9-47.4z" fill="#f3f8df"/><path d="m50.9 1.2c137 67.4 306.1 151.4 306.1 151.4-10.5 0-28.1 39.4-45.3 58.5-29.8 33.2-58.6 59.7-101.7 74.1-71 23.6-152.5-16-179-92.8-14-40.7-18-88.5-5.5-148.1 5.5-26.6 20.9-45.3 25.4-43.1z" fill="url(#a)"/><path d="m149.2 284.5c0 2.6-.9 4.4-2.6 5.5-10.8-1.7-21.5-4.6-31.7-8.8 1.1-1.7 2.9-2.8 4.9-2.8 1 0 8.1-.1 21.2-.4 5.4-.1 8.1 2.1 8.2 6.5zm44.2-22.1c2.8 12 4.3 18.3 4.4 18.9.7 3-1.2 5.9-4.1 6.6-3 .7-6-1.2-6.7-4.1-.2-1-1.6-7.2-4.3-18.9-1.1-4.8.1-7.6 3.7-8.4s5.9 1.2 7 5.9zm-100.1-6.2c.5 6.7.8 11.6 1.1 14.7-4-2.4-7.9-5-11.7-7.8-.1-1.9-.2-3.9-.4-6.2-.3-4.7 1.4-7.1 5-7.4 3.7-.3 5.7 2 6 6.7zm199.9-25.9-.5.4c-9.5 9.6-19.3 18.5-29.8 26.3-1.2-3-.4-6.5 2.1-8.5 1-.7 7.6-5.9 19.8-15.5 3.2-2.4 5.9-3.3 8.4-2.7zm-74.8-14.2c10.3 11.1 15.7 16.9 16.2 17.5 2.6 2.7 2.5 7.1-.3 9.6-2.8 2.6-7.1 2.4-9.6-.3-.8-.9-6.3-6.7-16.3-17.5-4.1-4.4-4.5-8.2-1.2-11.3s7-2.4 11.2 2zm-155.4 17.1c2.8 3.6 2.4 7.2-1.3 10.8-3.5-3.8-6.7-7.8-9.7-11.9 4.4-3 8.1-2.6 11 1.1zm93.3-11.5c1.4 3.4-.1 6.1-4.7 8-11.3 4.8-17.2 7.3-17.8 7.5-2.8 1.2-6-.1-7.2-2.9s.1-6 2.9-7.2c.9-.4 6.8-2.9 17.8-7.6 4.5-1.9 7.5-1.2 9 2.2zm-52.7-12.3c1.8 11.6 2.8 17.7 2.9 18.3.5 2.9-1.6 5.6-4.6 6.1s-5.9-1.5-6.3-4.4c-.2-.9-1.1-7-2.9-18.3-.7-4.7.7-7.3 4.3-7.9 3.7-.5 5.9 1.5 6.6 6.2zm-27.3-16.2c2.2 2 1.9 4.5-.8 7.5-6.7 7.5-10.3 11.4-10.6 11.8-1.7 1.8-4.5 2-6.3.4-1.9-1.6-2-4.5-.3-6.3.5-.6 4.1-4.6 10.7-11.9 2.7-3 5.1-3.5 7.3-1.5zm117-17.6c3.1 1.9 3.3 5 .7 9.1-6.5 10.4-9.9 15.9-10.2 16.4-1.6 2.6-5 3.4-7.6 1.8s-3.4-5-1.8-7.6c.5-.8 4-6.3 10.3-16.4 2.6-4.2 5.4-5.3 8.6-3.3zm93.3-5.3c14.1 10.7 21.5 16.3 22.2 16.8 3.5 2.6 4.2 7.6 1.6 11.1s-7.6 4.2-11.1 1.6c-1.1-.8-8.6-6.4-22.3-16.8-5.6-4.2-6.8-8.5-3.7-12.7 3.2-4.2 7.7-4.2 13.3 0zm-154.2 3.4c4.5 10.9 6.8 16.7 7 17.2 1.1 2.7.1 5.7-2.1 6.6-2.3.9-5-.5-6.1-3.3-.3-.8-2.7-6.6-7-17.2-1.7-4.3-1.2-7.1 1.5-8.2s5 .5 6.7 4.9zm94.8-16.7c9 11 13.8 17 14.6 18 2.3 2.9 1.9 7.1-.9 9.4-2.9 2.3-7.1 1.8-9.4-1-.7-.9-5.6-6.9-14.6-18-3.7-4.6-3.8-8.3-.4-11.1 3.5-2.8 7-1.9 10.7 2.7zm-177.8 1.8c2.9.4 4.1 2.6 3.5 6.6-1.4 10-2.1 15.3-2.2 15.8-.3 2.5-2.6 4.2-5 3.9-2.4-.4-4.1-2.6-3.7-5.1.1-.8.8-6.1 2.2-15.8.5-4 2.3-5.8 5.2-5.4zm-20.4-2.7c2.7 1.1 3.4 3.3 2.1 6.8-2.8 7.2-4.4 11.5-5 13.1-1.4-5.1-2.5-10.2-3.6-15.5.1-.2.2-.5.3-.8 1.4-3.4 3.4-4.6 6.2-3.6zm56-6.3c1.8 2.4 1.4 4.5-1.3 6.6-6.6 5.2-10.1 7.9-10.4 8.2-1.7 1.3-4.2.8-5.7-1.2-1.5-1.9-1.4-4.5.2-5.8.5-.4 4-3.1 10.5-8.1 2.6-2.1 4.9-2 6.7.3zm78.4-23.8c3.6.3 5.2 2.9 4.7 7.6-1.2 11.7-1.9 17.8-1.9 18.4-.3 2.9-3 5-6.1 4.7-3-.3-5.2-2.9-4.9-5.8.1-.9.7-7.1 1.9-18.5.5-4.7 2.6-6.8 6.3-6.4zm144.4 1.9c1.7 5.6 2.6 8.6 2.8 9.1 1.1 3.8-1.3 7.9-5.3 9.1-4.1 1.3-8.4-.8-9.5-4.6-.4-1.2-2.8-8.9-7.1-23.1 6.8 3.3 13.1 6.5 19.1 9.5zm-260.2-13.1c2.9.5 4 2.8 3.3 6.8-1.7 9.9-2.6 15.2-2.7 15.6-.5 2.5-2.8 4.2-5.2 3.8-2.4-.5-4-2.8-3.5-5.3.1-.8 1-6 2.7-15.7.7-3.9 2.5-5.7 5.4-5.2zm65 4.9c.8.3 6.5 2.9 16.9 7.5 4.3 1.9 5.7 4.6 4.2 7.9-1.5 3.4-4.4 4.1-8.7 2.2-10.7-4.8-16.4-7.3-16.9-7.5-2.7-1.2-3.9-4.4-2.6-7.2 1.2-2.8 4.4-4.1 7.1-2.9zm-88.8-9c2.6.9 3.3 3 2.1 6.1-2.9 8-4.4 12.1-4.5 12.5-.5 1.2-1.5 2-2.7 2.3-.4-5.5-.6-11.1-.7-16.8.1-.3.2-.5.3-.8 1.1-3.1 3-4.2 5.5-3.3zm221.2-10.6c2.5 4.5 1 8.3-4.6 11.4-14 7.8-21.4 11.8-22.1 12.2-3.4 2-7.9.5-10-3.2-2.1-3.8-.9-8.4 2.5-10.3 1.1-.6 8.5-4.7 22.1-12.2 5.6-3.1 9.6-2.4 12.1 2.1zm-156.6-6.3c1.2 2.7-.1 4.8-3.8 6.5-9.2 4.1-14 6.2-14.5 6.4-2.3 1.1-5 .1-5.9-2.1-1-2.3 0-4.9 2.3-5.9.7-.4 5.6-2.5 14.5-6.5 3.7-1.6 6.2-1.1 7.4 1.6zm108-21.1-.1.4c-5.3 13.7-8 20.9-8.3 21.6-1.5 4-5 6.2-7.9 5.1-2.8-1.1-3.9-5.1-2.4-9 .4-1.2 3.4-8.9 8.8-23 3.3 1.6 6.7 3.3 9.9 4.9zm-38.4 5.9c2.3 2.9 1.6 5.8-2.1 8.7-9.3 7.3-14.2 11.1-14.7 11.4-2.3 1.8-5.7 1.3-7.5-1.1-1.9-2.4-1.6-5.8.7-7.6.8-.6 5.6-4.4 14.7-11.4 3.7-2.9 6.7-2.9 8.9 0zm-50.3-9.2c.4.6 3 4.7 7.9 12.3 2 3.1 1.8 5.4-.7 7s-4.7.9-6.7-2.2c-5.1-7.8-7.7-11.9-8-12.3-1.2-1.9-.6-4.5 1.5-5.9 2-1.3 4.7-.8 6 1.1zm-66.3-10.8c2 1 2 3.3.2 6.9-4.6 9-7 13.8-7.2 14.2-1.1 2.2-3.4 3.4-5 2.5-1.7-.8-2.1-3.3-.9-5.5.3-.7 2.8-5.4 7.2-14.2 1.8-3.6 3.7-4.9 5.7-3.9zm27.5-.2c1.3 1.7.9 3.4-1.2 5.1-5.3 4.1-8.1 6.3-8.3 6.5-1.4 1-3.3.7-4.5-.8-1.1-1.4-.9-3.4.4-4.4.4-.4 3.2-2.5 8.3-6.6 2.2-1.6 3.9-1.6 5.3.2zm70.6-13.9-.1.1c-5.6 4.4-8.6 6.8-9 7-2.2 1.8-5.5 1.3-7.4-1.1s-1.6-5.8.6-7.6c.4-.3 2.1-1.5 4.9-3.8 3.7 1.8 7.4 3.6 11 5.4zm-52.8-21.5c2.9 0 4.4 1.7 4.4 5.2v.3 14.4c0 2.3-1.9 4.1-4.4 4.1-2.3 0-4.3-1.7-4.4-3.9v-.2-14.4c0-3.7 1.5-5.5 4.4-5.5zm-39.9 4.2h.1c.5.1 3.5.4 9.2.9 2.4.2 3.5 1.6 3.2 4.3-.2 2.7-1.5 4-3.9 3.8-5.8-.5-8.9-.8-9.2-.8-1.5-.2-2.5-2.1-2.3-4.3.2-2.1 1.4-3.7 2.7-3.9z" fill="#9e043b"/></g></g></svg>
